<?xml version="1.0" standalone="no"?>
<!DOCTYPE svg PUBLIC "-//W3C//DTD SVG 20010904//EN"
 "http://www.w3.org/TR/2001/REC-SVG-20010904/DTD/svg10.dtd">
<svg version="1.0" xmlns="http://www.w3.org/2000/svg"
 width="142.000000pt" height="99.000000pt" viewBox="0 0 142.000000 99.000000"
 preserveAspectRatio="xMidYMid meet">

<g transform="translate(0.000000,99.000000) scale(0.100000,-0.100000)"
fill="#000000" stroke="none">
<path d="M0 495 l0 -495 498 1 c273 1 484 5 467 9 l-30 7 35 4 c27 3 36 9 38
27 2 15 -2 22 -13 22 -9 0 -14 -4 -11 -9 3 -5 -3 -11 -14 -14 -15 -4 -24 2
-35 23 -22 43 -19 58 10 52 15 -2 25 0 25 7 0 6 -9 11 -19 11 -62 0 -21 104
56 144 66 33 169 9 207 -49 10 -15 20 -43 23 -62 6 -35 5 -36 -20 -31 -19 4
-27 1 -27 -10 0 -10 7 -13 25 -10 29 6 32 -9 10 -52 -11 -21 -20 -27 -35 -23
-11 3 -17 9 -14 14 3 5 0 9 -6 9 -16 0 -24 -28 -11 -44 6 -7 8 -16 4 -19 -3
-4 53 -7 125 -7 l132 0 0 495 0 495 -115 0 -116 0 23 -31 c22 -30 23 -38 26
-280 2 -142 -1 -249 -6 -249 -11 0 -22 179 -22 363 l0 139 -29 29 -29 29 -326
0 c-179 0 -326 -2 -326 -4 0 -2 7 -20 15 -39 55 -133 -62 -266 -200 -227 -56
16 -101 63 -116 122 -12 43 -11 53 8 98 l21 50 -114 0 -114 0 0 -495z m948
339 c21 -14 31 -44 14 -44 -6 0 -38 19 -61 36 -5 4 9 24 17 24 4 0 18 -7 30
-16z m-103 -46 c19 -13 35 -26 35 -29 0 -4 -17 -14 -37 -22 -40 -16 -58 -11
-107 26 -18 13 -17 15 25 30 24 8 45 16 47 16 1 1 18 -9 37 -21z m-165 -64
c22 -15 40 -28 40 -29 0 -1 -20 -10 -44 -19 -44 -17 -45 -17 -80 6 -20 13 -36
26 -36 29 0 5 41 25 78 38 1 1 20 -11 42 -25z m-164 -65 c40 -24 41 -27 12
-38 -16 -6 -30 -3 -48 11 -21 15 -31 17 -54 8 -37 -14 -41 -13 -25 6 30 37 70
41 115 13z m404 -18 c0 -24 -24 -71 -38 -75 -41 -11 -82 -17 -82 -11 0 3 9 23
20 45 16 31 26 40 52 43 18 2 36 5 41 5 4 1 7 -2 7 -7z m99 -38 c1 -7 -8 -13
-19 -13 -23 0 -24 1 -8 35 11 24 13 25 19 8 4 -10 8 -24 8 -30z m-526 -20 c15
-21 23 -41 19 -45 -4 -4 -26 -11 -50 -16 -37 -9 -44 -8 -52 8 -12 22 -13 61
-2 58 4 -2 7 2 7 7 0 6 -4 9 -8 7 -5 -1 -6 2 -2 8 3 5 19 10 34 10 21 0 35
-10 54 -37z m246 -2 c-13 -38 -25 -47 -71 -55 -43 -8 -46 -1 -23 44 15 29 30
37 77 39 26 1 26 0 17 -28z m-515 -238 l-6 -238 26 -40 27 -40 -31 33 -30 32
0 245 c0 162 4 245 10 245 7 0 9 -77 4 -237z m346 227 c0 -6 -7 -24 -15 -40
-12 -22 -25 -31 -65 -39 -62 -13 -70 -14 -70 -2 0 5 22 11 49 15 51 7 77 26
68 50 -3 8 -3 17 0 20 10 10 33 7 33 -4z m453 -7 c2 -5 7 -24 11 -44 l6 -37
-141 -27 c-77 -15 -142 -25 -144 -23 -11 12 -22 79 -13 84 9 6 236 51 265 53
6 1 14 -2 16 -6z m-309 -69 c3 -9 6 -29 6 -45 0 -22 -5 -30 -22 -33 -230 -49
-267 -50 -268 -4 0 9 -3 23 -6 31 -4 12 21 20 123 40 155 31 159 31 167 11z
m334 -75 c3 -40 -9 -55 -57 -69 -29 -8 -33 -6 -42 17 -17 46 -8 77 26 84 57
13 70 7 73 -32z m-132 -16 c3 -16 8 -36 10 -45 6 -21 23 -17 -258 -69 -37 -7
-70 -10 -73 -7 -3 3 -7 25 -8 49 l-2 42 140 28 c183 35 183 35 191 2z m-352
-95 c7 -36 6 -37 -28 -43 -63 -12 -77 0 -90 72 0 4 22 13 49 19 56 12 59 10
69 -48z"/>
<path d="M480 550 c0 -5 5 -10 10 -10 6 0 10 5 10 10 0 6 -4 10 -10 10 -5 0
-10 -4 -10 -10z"/>
<path d="M337 903 c-12 -11 -8 -40 8 -53 9 -8 15 -9 15 -2 0 6 -5 14 -11 18
-6 3 -9 15 -6 25 5 20 4 23 -6 12z"/>
<path d="M268 773 c7 -3 16 -2 19 1 4 3 -2 6 -13 5 -11 0 -14 -3 -6 -6z"/>
<path d="M1064 279 c-3 -6 -1 -16 5 -22 8 -8 11 -5 11 11 0 24 -5 28 -16 11z"/>
<path d="M1180 238 c0 -9 -6 -19 -12 -21 -8 -3 -7 -6 4 -6 22 -1 33 18 19 32
-8 8 -11 7 -11 -5z"/>
<path d="M962 228 c3 -7 13 -15 24 -17 16 -3 17 -1 5 13 -16 19 -34 21 -29 4z"/>
<path d="M1042 168 c-15 -15 -15 -41 0 -56 15 -15 54 -16 63 -2 3 5 0 10 -8
10 -8 0 -20 6 -26 14 -9 11 -8 18 4 30 15 15 15 16 -2 16 -11 0 -24 -5 -31
-12z"/>
<path d="M1054 23 c-17 -17 -17 -18 5 -21 22 -3 40 11 41 31 0 13 -28 7 -46
-10z"/>
</g>
</svg>
